<?xml version="1.0" encoding="utf-8"?>
<!-- Generator: Adobe Illustrator 22.0.0, SVG Export Plug-In . SVG Version: 6.00 Build 0)  -->
<svg version="1.1" id="Capa_1" xmlns="http://www.w3.org/2000/svg" xmlns:xlink="http://www.w3.org/1999/xlink" x="0px" y="0px"
	 viewBox="0 0 383.5 237.4" style="enable-background:new 0 0 383.5 237.4;" xml:space="preserve">
<g>
	<path d="M283.8,93.8c-0.5,0.4-0.8,0.8-0.8,1.2c0,0.5,0.5,0.8,1.6,0.8c0.9,0,1.7,0,2.3-0.1c3.1-0.2,5.2-0.3,6.2-0.3
		c1.8,0,3.2,0,4.3,0.1c1.1,0.1,2.3,0.2,3.7,0.3c1,0,1.5-0.3,1.5-0.8c0-0.3-0.2-0.7-0.5-1c-1.1-1-2-1.8-2.5-2.3c-1-1-1.5-1.8-1.4-2.7
		l10.4-77.2l22,24.7c-2.5,2.6-4.6,5.6-6.2,9c-1.9,3.8-2.8,7.3-2.8,10.6c0,4.4,1.2,8.3,3.6,11.6c2.6,3.5,5.8,5.3,9.9,5.3
		c3.9,0,7.1-1.7,9.7-5.1c2.3-3.2,3.5-6.9,3.5-11.3c0-3.1-0.8-6.3-2.4-9.5c-1.2-2.5-2.8-4.7-4.6-6.6c5-6,9.1-11.2,12-15.5
		c3-4.3,4.8-7.6,5.6-9.8l10.5,74c0.1,0.8-0.5,1.7-1.7,2.7c-1,0.8-2,1.5-3.1,2.3c-0.4,0.4-0.5,0.7-0.5,1c0,0.5,0.4,0.8,1.2,0.8
		c0.4,0,1.7,0,3.8-0.2c2.1-0.2,3.6-0.2,4.6-0.2c1.9,0,3.5,0,4.6,0.1c1.2,0.1,2.5,0.2,4,0.3c1,0,1.5-0.2,1.5-0.7
		c0-0.4-0.3-0.8-0.8-1.3c-0.9-0.7-1.8-1.3-2.7-2c-1.1-1-1.8-1.9-1.8-2.7L366.5,6.7c-0.1-0.8,0.5-1.8,1.8-2.8c1-0.7,2-1.5,3-2.3
		c0.3-0.3,0.4-0.5,0.4-0.8c0-0.5-0.4-0.8-1.2-0.8c-0.3,0-1.4,0.1-3.3,0.2c-1.9,0.1-3.7,0.2-5.4,0.2c-1.9,0-3.4,0-4.5-0.1
		c-1.1-0.1-2.5-0.2-4-0.3c-1,0-1.6,0.3-1.6,0.8c0,0.3,0.2,0.6,0.5,0.9c1.1,0.9,2,1.7,2.6,2.2c1.2,0.9,1.8,1.8,1.8,2.6
		c0,0.1,0,0.3-0.1,0.6c-0.7,1.9-2.9,5.1-6.8,9.5c-3,3.4-6.4,7.1-10.4,11.1c-3.5,3.6-5.3,5.3-5.4,5.3l-22.5-25
		c-0.7-0.7-1.1-1.4-1.1-2.1c0-0.5,0.2-1,0.7-1.6c0.2-0.3,0.7-0.7,1.3-1.2c0.6-0.5,1.3-1,2-1.6c0.4-0.4,0.5-0.7,0.5-1
		c0-0.5-0.5-0.7-1.5-0.7c-0.9,0-1.7,0-2.3,0.1c-3.1,0.2-5.2,0.3-6.2,0.3c-1.4,0-3-0.1-4.8-0.2c-1.8-0.1-2.9-0.2-3.3-0.2
		c-1.3,0-1.9,0.3-1.9,0.9c0,0.3,0.2,0.6,0.5,0.9c1,0.6,1.7,1.1,2.2,1.5c1.8,1.3,2.6,2.4,2.5,3.4L289,89c-0.1,0.8-0.8,1.7-2.1,2.7
		C285.8,92.4,284.8,93.1,283.8,93.8z M328.7,57.1c0-2.4,1-5,2.9-7.7c1.4-1.9,3.2-3.7,5.4-5.5c1.8,1.6,3.2,3.3,4.2,5.1
		c1.4,2.3,2.1,4.7,2.1,7.1c0,3-0.6,5.6-1.8,7.7c-1.4,2.5-3.4,3.7-5.9,3.7c-2.2,0-4-1.1-5.3-3.3C329.2,62.2,328.7,59.9,328.7,57.1z"
		/>
	<path d="M259.2,94.7c-0.1,0.1-0.1,0.2-0.1,0.3c0,0.1,0,0.2,0,0.2c0,0.3,0.3,0.5,0.9,0.5c0.3,0,1.3,0,2.9-0.1
		c1.6-0.1,2.7-0.2,3.3-0.2c1,0,2.6,0.1,4.6,0.3c0.8,0.1,1.3,0.1,1.6,0c0.5,0,0.8-0.2,0.8-0.6c0-0.2,0-0.3-0.1-0.4
		c-0.1-0.1-0.8-0.7-2.1-1.7c-1-0.8-1.5-1.5-1.5-2.1V33.4c0-0.6,0.5-1.3,1.4-2.1c0.7-0.5,1.4-1.1,2.1-1.7c0.1-0.1,0.1-0.3,0.1-0.6
		c0-0.3-0.3-0.4-0.7-0.4c-0.3,0-1.3,0-2.9,0.1c-1.6,0.1-2.7,0.2-3.4,0.2c-1.3,0-2.6,0-3.9-0.1c-1.3-0.1-2.1-0.1-2.2-0.1
		c-0.6,0-0.9,0.2-0.9,0.5c0,0.2,0.1,0.4,0.2,0.5c0.1,0.1,0.7,0.6,2,1.6c1,0.8,1.5,1.5,1.5,2.1v57.7c0,0.6-0.5,1.3-1.4,2
		C260,94,259.3,94.6,259.2,94.7z"/>
	<path d="M190.2,27.9c0,1.8,0.8,3.3,2.4,4.4c1.6,1.1,3.5,1.7,5.7,1.7c2.4,0,4.9-0.4,7.5-1.3c5.7-1.9,9.7-2.8,11.8-2.8
		c7.1,0,13,3,17.6,9c4.4,5.7,6.6,12.4,6.6,20.2c0,9.4-2.7,17.5-8.2,24.3c-5.7,7-12.7,10.5-21,10.5c-0.9,0-1.9-0.1-3.2-0.2
		c-1.3-0.1-2.9-0.5-4.7-1c-1.9-0.5-3.2-1.1-4-1.8c0.5-0.5,1-1.1,1.4-1.6c0.3-0.4,0.6-1,1-1.8c0.4-0.8,0.6-1.8,0.7-3
		c0.1-1.2,0.1-2.8,0.1-4.7V58.5c1.3,0.6,2.4,1,3.4,1.2c1,0.2,2.1,0.3,3.5,0.3c1.3,0,3-0.7,5.2-2c2.2-1.3,3.9-2,5.2-2
		c1,0,1.9,0.2,2.7,0.7c0.8,0.5,1.2,1.2,1.2,2.1c0,2-0.9,2.9-2.6,2.7c-0.5-0.1-1-0.2-1.3-0.4c-0.3-0.1-0.5-0.3-0.6-0.5
		c-0.1-0.2-0.2-0.2-0.3-0.2c-0.2,0-0.2,0.1-0.2,0.3c-0.2,0.4-0.2,0.9-0.2,1.4c0,0.3,0,0.6,0.1,1c0.1,0.4,0.4,0.9,1.2,1.5
		c0.7,0.6,1.5,0.9,2.3,0.9c1.4,0,2.5-0.5,3.2-1.6c0.8-1.1,1.1-2.3,1.1-3.8c0-0.3,0-0.6,0-0.7c-0.2-2.2-1.2-3.9-2.8-5.3
		c-1.7-1.3-3.7-2-6-2c-2.2,0-4.3,0.4-6.3,1.1c-4.4,1.7-7.9,2.5-10.4,2.5c-1.2,0-2.4-0.2-3.7-0.6c-1.4-0.5-2.8-1-4.2-1.6
		c-0.4,0-0.6,0.2-0.4,0.6c0.5,0.6,1,1.1,1.4,1.7c1.4,1.8,2.1,3.7,2.1,5.7v20.3c0,2.6-0.5,4.7-1.5,6.5c-0.4,0.6-1.1,1.6-2.3,2.9
		c-0.2,0.2-0.2,0.4-0.2,0.5c0,0.2,0.1,0.3,0.3,0.5c1.3,1,4,2,8,3.1c4.8,1.3,9.2,2,13.1,2c9.7,0,17.8-3.6,24.5-10.9
		c6.6-7.1,9.8-15.6,9.8-25.5c0-9.4-2.8-17.3-8.5-23.7c-5.9-6.7-13.6-10-22.9-10c-3.1,0-6.6,0.6-10.4,1.9c-3.8,1.2-6.1,1.9-6.9,1.9
		c-2.7,0-4.1-1-4.1-3c0-0.8,0.2-1.5,0.7-1.9c0.5-0.4,1.1-0.6,1.7-0.6c0.3-0.1,0.5-0.1,0.8,0c0.3,0.1,0.4,0.1,0.6,0.2
		c0.2,0.1,0.4,0.1,0.5,0.1c0.1,0,0.2-0.1,0.2-0.3c0-0.2-0.1-0.4-0.2-0.7c-0.4-0.9-1.1-1.6-1.9-2.1c-0.9-0.5-1.8-0.7-2.8-0.7
		c-1.7,0-3,0.6-3.9,1.7C190.6,24.8,190.2,26.3,190.2,27.9z"/>
	<path d="M125.2,92.8c0,0.9,0.5,1.9,1.6,2.8c1.2,1.1,2.6,1.7,4.1,1.7c2.2,0,4.1-1.1,5.6-3.2c1.3-2,2-4.2,2-6.8
		c2.6,3.3,5.7,5.9,9.2,7.6c3.4,1.6,7,2.4,11,2.4c7.3,0,13-2.9,17-8.6c3.7-5.2,5.6-12,5.6-20.3c0-4.6-1.3-9.4-4-14.5
		c-2.1-4.1-5.1-8.2-9-12.6c-2.9-3.2-5.9-6.2-9.1-8.9c0.8,0.4,1.6,0.7,2.5,0.8c0.9,0.2,1.8,0.3,2.8,0.3c0.7,0,1.4,0,2.1-0.1
		c2.8-0.7,5.6-1.4,8.3-2.1c0.7,0,1.3,0.2,1.8,0.6c0.5,0.4,0.8,1,0.8,1.7c0,0.5-0.1,0.9-0.3,1.2c-0.3,0.3-0.6,0.5-1,0.6
		c-0.6,0-1-0.1-1.3-0.2c-0.3-0.2-0.5-0.3-0.6-0.4c-0.1-0.1-0.3-0.2-0.4-0.1c-0.2,0-0.3,0.2-0.3,0.6c0,0.8,0.3,1.6,0.8,2.4
		c0.7,1,1.6,1.5,2.8,1.5c1,0,1.7-0.4,2.3-1.1c0.6-0.7,0.9-1.7,0.9-2.8c0-0.4-0.1-0.8-0.2-1.4c-0.4-1.5-1.5-2.9-3.1-4.2
		c-1.8-1.4-3.6-2.1-5.5-2.1c-1.2,0-2.6,0.2-4,0.6c-3.1,0.9-5.3,1.4-6.5,1.4c-1.4,0-2.6-0.2-3.7-0.6c-0.5-0.2-1.2-0.5-2-1
		c-0.4-0.2-0.6-0.2-0.8-0.2c-0.3,0-0.6,0.3-1.1,0.8c-0.5,0.5-0.7,0.9-0.7,1.1s0.1,0.6,0.4,0.9c1.7,1.3,3.4,2.7,5,4.1s3.2,3.2,4.7,5
		c2.4,2.9,4.4,5.7,5.9,8.3c1.8,3.1,3.2,6.2,4.1,9.3c1,3.6,1.5,7.3,1.5,11.3c0,6.3-1.4,11.5-4.1,15.7c-3.2,4.9-7.8,7.4-13.8,7.4
		c-3.9,0-7.4-0.9-10.7-2.7c-2.7-1.5-5.1-3.5-7.2-6V33.4c0-0.6,0.5-1.3,1.4-2.1c0.7-0.5,1.4-1.1,2.1-1.7c0.1-0.1,0.1-0.3,0.1-0.6
		c0-0.3-0.3-0.4-0.7-0.4c-0.3,0-1.3,0-2.9,0.1c-1.6,0.1-2.7,0.2-3.4,0.2c-1.3,0-2.6,0-3.9-0.1c-1.3-0.1-2.1-0.1-2.2-0.1
		c-0.6,0-0.9,0.2-0.9,0.5c0,0.2,0.1,0.4,0.2,0.5c0.1,0.1,0.7,0.6,2,1.6c1,0.8,1.5,1.5,1.5,2.1V85c0,2.4-0.2,4.2-0.7,5.6
		c-0.6,1.8-1.6,2.7-2.9,2.7c-0.6,0-1-0.1-1.4-0.2c-0.3-0.1-0.7-0.4-1.1-0.8c-0.1-0.1-0.2-0.2-0.3-0.2c-0.1,0-0.2,0.1-0.2,0.2
		C125.1,92.5,125.1,92.7,125.2,92.8z"/>
	<path d="M56.8,40c0,2.7,0.8,5.1,2.5,7c1.7,2,4.2,3.8,7.6,5.4c2.6,1.2,5.6,2.2,9.1,3c1.8,0.4,4.9,0.9,9.2,1.6
		c4.3,0.7,7.5,1.3,9.4,1.8c3.3,0.9,6.5,2.5,9.5,4.8c2.6,1.9,4.6,4.1,6.2,6.3c-1,5.7-3.8,10.9-8.4,15.5C96.8,90.5,91,93,84.6,93
		c-4.6,0-8.5-0.9-11.6-2.6c-3.2-1.8-4.7-4.1-4.7-6.9c0-0.9,0.1-1.7,0.3-2.4c0.2-0.7,0.4-1.3,0.6-1.8c0.1-0.2,0.1-0.4,0-0.5
		c-0.1-0.1-0.3-0.2-0.6-0.2c-0.9,0.1-1.7,0.6-2.5,1.3c-1.1,1.1-1.7,2.3-1.7,3.8c0,4.1,2.3,7.4,7,10c4.3,2.4,9.3,3.5,15.1,3.5
		c9.3,0,16.9-3.2,22.7-9.7c5.9-6.5,8.9-15.1,8.9-25.6c0-9.3-3.1-17.4-9.2-24.2c-6.3-7-13.9-10.4-23-10.4c-4,0-7.4,0.8-10.2,2.3
		c-3.2,1.7-4.8,4-4.8,6.9c0,1.5,0.5,2.7,1.4,3.8c0.9,1.1,2.2,1.7,3.8,2c0.1,0,0.3,0,0.5,0c0.3,0,0.4,0,0.5,0c0.6,0,1.2-0.1,1.7-0.2
		c0.5-0.1,0.9-0.3,1.2-0.6c0.3-0.1,0.4-0.3,0.4-0.5s-0.1-0.4-0.4-0.6c-0.6-0.4-1.1-0.8-1.3-1.1c-0.5-0.7-0.9-1.5-1-2.5
		c0-0.1,0-0.2,0-0.3c0-0.2,0-0.3,0-0.3c0-1.8,1.1-3.1,3.3-4.2c1.9-0.9,4-1.3,6.3-1.3c3.7,0,7,0.8,10.1,2.3c3.1,1.5,5.8,3.7,8.2,6.6
		c2.2,2.7,3.8,5.8,4.8,9.3c1,3.5,1.5,7.3,1.5,11.5c0,0.8,0,1.7-0.1,2.7c0,1-0.1,2.1-0.3,3.3c-1.2-1.7-3-3.6-5.5-5.7
		c-3.3-2.9-6.4-4.9-9.3-6c-2.5-1-5.1-1.7-7.8-2.2c-1.5-0.3-4.1-0.7-7.7-1.1c-3.6-0.4-6.5-0.9-8.7-1.3c-3.5-0.7-6.2-1.5-8.1-2.4
		c-2.9-1.5-4.3-3.5-4.3-5.9c0-1.7,0.5-2.8,1.4-3.3c0.3-0.2,0.7-0.3,1.3-0.3c0.4,0,0.7,0.1,0.9,0.2c0.4,0.3,0.6,0.4,0.8,0.4
		c0.2,0,0.2-0.2,0.2-0.5c0,0-0.1-0.3-0.2-0.8c-0.1-0.5-0.5-1-1.2-1.6c-0.7-0.5-1.4-0.8-2.3-0.8c-1.3,0-2.4,0.5-3.2,1.5
		S56.8,38.7,56.8,40z"/>
	<path d="M0,80.7c0,4.7,1.6,8.6,4.9,11.8c3.3,3.2,7.3,4.8,12.2,4.8c2.3,0,4.9-0.5,7.6-1.4c6.2-2.1,10.3-3.1,12.3-3.1
		c2.3,0,4.2,0.3,5.6,0.9c1.4,0.6,2.6,1.5,3.5,2.7c0.3,0.3,0.4,0.4,0.6,0.4c0.1,0,0.2-0.1,0.4-0.3c0.3-0.4,0.5-0.8,0.7-1.1
		c0.3-0.5,0.7-0.9,1.3-1.4c0.5-0.4,1.1-0.8,1.8-1.1c0.2-0.1,0.6-0.2,1.4-0.4c0.3-0.1,0.4-0.1,0.4-0.2s-0.1-0.2-0.3-0.4
		c-3.1-2.1-5.4-4.7-6.9-7.8c-1.3-2.6-1.9-5.3-1.9-8.3V33.4c0-0.6,0.5-1.3,1.4-2.1c0.7-0.5,1.4-1.1,2.1-1.7c0.1-0.1,0.1-0.3,0.1-0.6
		c0-0.3-0.3-0.4-0.7-0.4c-0.3,0-1.3,0-2.9,0.1C41.8,28.9,40.7,29,40,29c-1.3,0-2.6,0-3.9-0.1c-1.3-0.1-2.1-0.1-2.2-0.1
		c-0.6,0-0.9,0.2-0.9,0.5c0,0.2,0.1,0.4,0.2,0.5c0.1,0.1,0.7,0.6,2,1.6c1,0.8,1.5,1.5,1.5,2.1v37.9c0,4.5,1,8.7,3,12.6
		c1.5,2.9,3.3,5.5,5.6,7.6c-1.7-1.1-3.5-2-5.4-2.7c-2.4-0.9-4.7-1.4-6.8-1.4c-2.2,0-6.2,1-12,3.1c-2.7,1-5.3,1.5-7.6,1.5
		c-2.9,0-5.3-0.9-7.3-2.8c-2.1-2-3.2-4.8-3.2-8.2c0-3.6,0.9-6.5,2.7-8.8c1.8-2.3,4.2-3.4,7.2-3.4c1.9,0,3.5,0.5,4.7,1.4
		c1.2,0.9,1.8,2.1,1.8,3.7c0,1.3-0.4,2.2-1.1,2.8c-0.5,0.4-1.3,0.7-2.2,0.7c-0.4,0-0.7-0.1-1.1-0.2c-0.4-0.1-0.7-0.2-1-0.3
		c-0.2-0.1-0.4-0.1-0.4,0.1c0,0.2,0,0.4,0,0.6c0,1,0.6,1.9,1.7,2.7c1.1,0.8,2.4,1.2,3.8,1.2c2,0,3.7-0.7,4.9-2
		c1.3-1.4,1.9-3.2,1.9-5.4c0-2.7-1.1-4.8-3.4-6.5c-2.3-1.6-4.9-2.5-7.8-2.5c-4.2,0-7.8,1.5-10.6,4.6C1.4,72.4,0,76.1,0,80.7z"/>
	<path d="M276.8,214.2c-0.1,0.1-0.2,0.2-0.2,0.4c0,0.1-0.1,0.2-0.1,0.3c0,0.5,0.4,0.7,1.2,0.7c0.5,0,1.8,0,4.1-0.2
		c2.3-0.2,3.8-0.2,4.7-0.2c1.5,0,3.7,0.1,6.6,0.3c1.1,0.1,1.9,0.1,2.3,0.1c0.8,0,1.2-0.3,1.2-0.8c0-0.2-0.1-0.4-0.2-0.5
		c-0.1-0.2-1.1-1-2.9-2.4c-1.4-1.1-2.1-2.1-2.1-2.9c-0.1-0.5-0.2-1.2-0.3-2.2c-0.1-0.9-0.2-2-0.2-3.2c0-5,0.8-9.9,2.3-14.8
		c2.2-6.9,6-13.4,11.3-19.3c3.2-3.6,6.8-6.6,10.9-9.1c4.1-2.5,8.7-4.6,13.7-6.3c2.6,4.6,4.8,9.6,6.6,15.1c2.4,7.3,3.6,14.1,3.6,20.4
		c0,6.9-0.2,11.9-0.5,14.9c-0.5,5.2-1.8,9.9-3.6,14.1c-1.2,2.5-3,4.7-5.3,6.6c-1.3,1-2.9,2-4.9,3c-0.5,0.3-0.8,0.6-0.8,1
		c0,0.3,0.2,0.5,0.7,0.7c1.3,0.4,2.6,0.8,3.8,1.3c1.2,0.5,2.6,1.1,4.2,1.8c1.6,0.8,2.9,1.6,4.1,2.4c0.8,0.5,1.5,1.1,2.2,1.7
		c0.4,0.3,0.7,0.4,0.9,0.4c0.4,0,0.6-0.4,0.6-1.1c0-1.4,0.1-3,0.2-4.9c0.1-1.8,0.5-4.7,1-8.7c0.8-4.7,1.6-9.3,2.3-13.9
		c0.7-4.6,1-8.9,1-13c0-8.3-1.1-16.6-3.2-24.7c-1.9-7.1-4.3-13.3-7.3-18.5c1-0.2,2.1-0.3,3.2-0.5c1.1-0.1,2.4-0.2,3.9-0.2
		c2.6,0,5.3,0.3,8.1,0.9c2.8,0.6,5.3,1.6,7.4,3c2.8,1.9,4.2,4.1,4.2,6.6c0,2.6-1,4.1-3.1,4.5c-0.2,0-0.5,0.1-0.8,0.1
		c-1,0-1.8-0.2-2.5-0.7c-0.7-0.5-1.1-1.1-1.2-2.1c-0.1-0.9-0.4-1.4-0.7-1.4c-0.3,0-0.5,0.3-0.7,0.8c-0.2,0.5-0.2,1.1-0.2,1.9
		c0,0.4,0,0.9,0.1,1.3c0.1,0.5,0.2,0.9,0.3,1.4c0.6,1.7,1.6,3.1,3,4.2c1.4,1.1,3.2,1.7,5.3,1.7c0.3,0,0.5,0.1,0.8,0.1
		c2.4,0,4.5-0.9,6.1-2.7c1.7-1.8,2.5-4.1,2.5-6.9c0-4.7-2.6-8.6-7.7-11.7c-3.4-2.1-7.2-3.5-11.4-4.3c-1.5-0.3-3.1-0.5-4.9-0.6
		s-3.6-0.2-5.5-0.2c-3.7,0-6.6,0.2-8.7,0.7c-6.6-8.8-14-15.5-22-20.3c-9.3-5.5-19.4-8.3-30.2-8.3c-1.5,0-2.3,0.2-2.3,0.6
		c0,0.2,0.2,0.4,0.5,0.8c1.5,1.7,2.5,3.2,2.9,4.6c0.6,1.9,0.8,5.4,0.8,10.5v72.7c0,0.9-0.7,1.8-2.1,2.9
		C277.9,213.3,276.9,214.1,276.8,214.2z M291.4,179.7v-54c6.6,1.2,13.1,4.1,19.6,8.6c3.6,2.5,6.4,4.8,8.6,7c2.2,2.2,4.5,5.2,7,8.8
		c-3.9,1.3-7.5,2.9-10.8,4.6c-2.9,1.6-5.8,3.6-8.8,6c-3.3,2.6-6.2,5.4-8.6,8.4C296.1,172,293.8,175.5,291.4,179.7z"/>
	<path d="M209.1,214.4c-0.3,0.2-0.5,0.5-0.5,0.8c0,0.4,0.3,0.6,0.9,0.6c0.6,0,1.1,0,1.5,0c2.1-0.2,3.5-0.2,4.2-0.2
		c1.2,0,2.2,0,3,0.1c0.8,0.1,1.6,0.1,2.6,0.2c0.7,0,1-0.2,1-0.5c0-0.2-0.2-0.5-0.5-0.8c-0.9-0.6-1.6-1.1-2.1-1.5
		c-0.9-0.7-1.3-1.3-1.3-1.9l0.9-14.6c0.6,1.6,1.7,3,3.1,4.3c1.7,1.4,3.5,2.1,5.5,2.1c2,0,3.7-0.5,5.1-1.6c1.4-1.1,2.1-2.6,2.1-4.4
		c0-1.4-0.5-2.5-1.4-3.5c-0.9-1-2-1.5-3.3-1.5c-0.5,0-1,0-1.3,0.1c-0.3,0-0.6,0.2-0.8,0.4c-0.2,0.2-0.3,0.4-0.3,0.6
		c0,0.2,0.1,0.3,0.4,0.3c0.4,0,0.7,0.1,1,0.2c0.3,0.1,0.5,0.4,0.7,0.8c0.2,0.4,0.3,0.8,0.3,1.4c0,0.4,0,0.7-0.1,0.9
		c-0.3,1-0.8,1.7-1.7,2.1c-0.6,0.3-1.4,0.5-2.2,0.5c-1.5,0-2.7-0.7-3.6-2.1c-1-1.4-1.4-3-1.4-4.7c0-1.8,0.4-3.3,1.2-4.6
		c0.6-1,1.9-2.3,3.8-4c1.7-1.5,3.8-2.8,6.2-4.1c6-3.1,9.5-5,10.4-5.6c2-1.5,3.9-3.2,5.6-5.3c1.5-1.8,2.6-3.6,3.4-5.3l3.7,47.9
		c0,0.6-0.4,1.2-1.2,1.9c-0.7,0.5-1.3,1.1-2,1.6c-0.2,0.2-0.3,0.5-0.3,0.7c0,0.4,0.3,0.5,0.8,0.5c0.4,0,1.2,0,2.4-0.1
		c1.3-0.1,2.3-0.2,3-0.2c0.9,0,2,0,3.2,0.1c1.2,0.1,1.9,0.1,2.2,0.1c0.6,0,0.9-0.2,0.9-0.5c0-0.2-0.1-0.5-0.4-0.8
		c-0.2-0.1-1-0.7-2.5-1.6c-1.2-0.7-1.8-1.3-1.8-1.9l-4.4-57.6c0-0.6,0.4-1.3,1.3-2c0.7-0.5,1.5-1,2.2-1.6c0.3-0.2,0.4-0.4,0.4-0.7
		c0-0.4-0.4-0.6-1.2-0.5c-0.6,0-1.1,0-1.4,0c-1.9,0.2-3.1,0.2-3.6,0.2c-0.8,0-1.8,0-3.1-0.1c-1.3-0.1-2-0.1-2.4-0.1
		c-0.5,0-0.8,0.2-0.8,0.5c0,0.2,0.1,0.4,0.2,0.5c0.9,0.5,1.5,1,2,1.3c1,0.7,1.5,1.4,1.5,2.3c0,2-0.4,3.9-1.3,5.6
		c-0.8,1.8-2.1,3.3-3.6,4.7c-1.6,1.3-3.4,2.6-5.5,3.7c-1.9,0.9-3.7,1.8-5.6,2.7c-2.2,1.1-4.2,2.4-5.9,3.9c-1.9,1.6-3.7,3.5-5.3,5.6
		c-1.5,1.9-2.5,3.7-3.2,5.3l2-31.4c0.1-0.6,0.6-1.2,1.7-2c1.5-1,2.4-1.5,2.5-1.6c0.2-0.3,0.4-0.5,0.4-0.7c0-0.3-0.3-0.5-1-0.5
		c-0.6,0-1.1,0-1.5,0c-2.1,0.2-3.5,0.2-4.1,0.2c-1.2,0-2.5,0-3.7-0.1s-2-0.1-2.1-0.1c-0.5,0-0.7,0.2-0.7,0.5c0,0.2,0.1,0.4,0.3,0.7
		c0.9,0.7,1.7,1.2,2.2,1.6c1,0.7,1.5,1.4,1.5,2l-3.6,57.6c0,0.5-0.3,1-1,1.4C211.3,213.1,210.2,213.7,209.1,214.4z"/>
	<path d="M140.2,147.9c0,1.8,0.8,3.3,2.4,4.4c1.6,1.1,3.5,1.7,5.7,1.7c2.4,0,4.9-0.4,7.5-1.3c5.7-1.9,9.7-2.8,11.8-2.8
		c7.1,0,13,3,17.6,9c4.4,5.7,6.6,12.4,6.6,20.2c0,9.4-2.7,17.5-8.2,24.3c-5.7,7-12.7,10.5-21,10.5c-0.9,0-1.9-0.1-3.2-0.2
		c-1.3-0.1-2.9-0.5-4.7-1c-1.9-0.5-3.2-1.1-4-1.8c0.5-0.5,1-1.1,1.4-1.6c0.3-0.4,0.6-1,1-1.8s0.6-1.8,0.7-3c0.1-1.2,0.1-2.8,0.1-4.7
		v-21.4c1.3,0.6,2.4,1,3.4,1.2c1,0.2,2.1,0.3,3.5,0.3c1.3,0,3-0.7,5.2-2c2.2-1.3,3.9-2,5.2-2c1,0,1.9,0.2,2.7,0.7
		c0.8,0.5,1.2,1.2,1.2,2.1c0,2-0.9,2.9-2.6,2.7c-0.5-0.1-1-0.2-1.3-0.4c-0.3-0.1-0.5-0.3-0.6-0.5c-0.1-0.2-0.2-0.2-0.3-0.2
		c-0.2,0-0.2,0.1-0.2,0.3c-0.2,0.4-0.2,0.9-0.2,1.4c0,0.3,0,0.6,0.1,1c0.1,0.4,0.4,0.9,1.1,1.5c0.7,0.6,1.5,0.9,2.3,0.9
		c1.4,0,2.5-0.5,3.2-1.6c0.8-1.1,1.1-2.3,1.1-3.8c0-0.3,0-0.6,0-0.7c-0.2-2.2-1.2-3.9-2.8-5.3c-1.7-1.3-3.7-2-6-2
		c-2.2,0-4.3,0.4-6.3,1.1c-4.4,1.7-7.9,2.5-10.4,2.5c-1.2,0-2.4-0.2-3.7-0.6c-1.4-0.5-2.8-1-4.2-1.6c-0.4,0-0.6,0.2-0.4,0.6
		c0.5,0.6,1,1.1,1.4,1.7c1.4,1.8,2.1,3.7,2.1,5.7v20.3c0,2.6-0.5,4.7-1.5,6.5c-0.4,0.6-1.1,1.6-2.3,2.9c-0.2,0.2-0.2,0.4-0.2,0.5
		c0,0.2,0.1,0.3,0.3,0.5c1.3,1,4,2,8,3.1c4.8,1.3,9.2,2,13.1,2c9.7,0,17.8-3.6,24.5-10.9c6.6-7.1,9.8-15.6,9.8-25.5
		c0-9.4-2.8-17.3-8.5-23.7c-5.9-6.7-13.6-10-22.9-10c-3.1,0-6.6,0.6-10.4,1.9c-3.8,1.2-6.1,1.9-6.9,1.9c-2.7,0-4.1-1-4.1-3
		c0-0.8,0.2-1.5,0.7-1.9c0.5-0.4,1.1-0.6,1.7-0.6c0.3-0.1,0.5-0.1,0.8,0c0.3,0.1,0.4,0.1,0.6,0.2c0.2,0.1,0.4,0.1,0.5,0.1
		c0.1,0,0.2-0.1,0.2-0.3c0-0.2-0.1-0.4-0.2-0.7c-0.4-0.9-1.1-1.6-1.9-2.1c-0.9-0.5-1.8-0.7-2.8-0.7c-1.7,0-3,0.6-3.9,1.7
		C140.7,144.8,140.2,146.3,140.2,147.9z"/>
	<path d="M70.9,160c0,2.7,0.8,5.1,2.5,7c1.7,2,4.2,3.8,7.6,5.4c2.6,1.2,5.6,2.2,9.1,3c1.8,0.4,4.9,0.9,9.2,1.6
		c4.3,0.7,7.5,1.3,9.4,1.8c3.3,0.9,6.5,2.5,9.5,4.8c2.6,1.9,4.6,4.1,6.2,6.3c-1,5.7-3.8,10.9-8.4,15.5c-5.1,5.1-10.9,7.7-17.3,7.7
		c-4.6,0-8.5-0.9-11.6-2.6c-3.2-1.8-4.7-4.1-4.7-6.9c0-0.9,0.1-1.7,0.3-2.4c0.2-0.7,0.4-1.3,0.6-1.8c0.1-0.2,0.1-0.4,0-0.5
		c-0.1-0.1-0.3-0.2-0.6-0.2c-0.9,0.1-1.7,0.6-2.5,1.3c-1.1,1.1-1.7,2.3-1.7,3.8c0,4.1,2.3,7.4,7,10c4.3,2.4,9.3,3.5,15.1,3.5
		c9.3,0,16.9-3.2,22.7-9.7c5.9-6.5,8.9-15.1,8.9-25.6c0-9.3-3.1-17.4-9.2-24.2c-6.3-7-13.9-10.4-23-10.4c-4,0-7.4,0.8-10.2,2.3
		c-3.2,1.7-4.8,4-4.8,6.9c0,1.5,0.5,2.7,1.4,3.8c0.9,1.1,2.2,1.7,3.8,2c0.1,0,0.3,0,0.5,0c0.3,0,0.4,0,0.5,0c0.6,0,1.2-0.1,1.7-0.2
		c0.5-0.1,0.9-0.3,1.2-0.6c0.3-0.1,0.4-0.3,0.4-0.5s-0.1-0.4-0.4-0.6c-0.6-0.4-1.1-0.8-1.3-1.1c-0.5-0.7-0.9-1.5-1-2.5
		c0-0.1,0-0.2,0-0.3c0-0.2,0-0.3,0-0.3c0-1.8,1.1-3.1,3.3-4.2c1.9-0.9,4-1.3,6.3-1.3c3.7,0,7,0.8,10.1,2.3c3.1,1.5,5.8,3.7,8.2,6.6
		c2.2,2.7,3.8,5.8,4.8,9.3c1,3.5,1.5,7.3,1.5,11.5c0,0.8,0,1.7-0.1,2.7c0,1-0.1,2.1-0.3,3.3c-1.2-1.7-3-3.6-5.5-5.7
		c-3.3-2.9-6.4-4.9-9.3-6c-2.5-1-5.1-1.7-7.8-2.2c-1.5-0.3-4.1-0.7-7.7-1.1c-3.6-0.4-6.5-0.9-8.7-1.3c-3.5-0.7-6.2-1.5-8.1-2.4
		c-2.9-1.5-4.3-3.5-4.3-5.9c0-1.7,0.5-2.8,1.4-3.3c0.3-0.2,0.7-0.3,1.3-0.3c0.4,0,0.7,0.1,0.9,0.2c0.4,0.3,0.6,0.4,0.8,0.4
		c0.2,0,0.2-0.2,0.2-0.5c0,0-0.1-0.3-0.2-0.8c-0.1-0.5-0.5-1-1.2-1.6c-0.7-0.5-1.4-0.8-2.3-0.8c-1.3,0-2.4,0.5-3.2,1.5
		C71.3,157.5,70.9,158.7,70.9,160z"/>
	<path d="M14.2,200.7c0,4.7,1.6,8.6,4.9,11.8c3.3,3.2,7.3,4.8,12.2,4.8c2.3,0,4.9-0.5,7.6-1.4c6.2-2.1,10.3-3.1,12.3-3.1
		c2.3,0,4.2,0.3,5.6,0.9c1.4,0.6,2.6,1.5,3.5,2.7c0.3,0.3,0.4,0.4,0.6,0.4c0.1,0,0.2-0.1,0.4-0.3c0.3-0.4,0.5-0.8,0.7-1.1
		c0.3-0.5,0.7-0.9,1.3-1.4c0.5-0.4,1.1-0.8,1.8-1.1c0.2-0.1,0.6-0.2,1.4-0.4c0.3-0.1,0.4-0.1,0.4-0.2s-0.1-0.2-0.3-0.4
		c-3.1-2.1-5.4-4.7-6.9-7.8c-1.3-2.6-1.9-5.3-1.9-8.3v-42.3c0-0.6,0.5-1.3,1.4-2.1c0.7-0.5,1.4-1.1,2.1-1.7c0.1-0.1,0.1-0.3,0.1-0.6
		c0-0.3-0.3-0.4-0.7-0.4c-0.3,0-1.3,0-2.9,0.1c-1.6,0.1-2.7,0.2-3.4,0.2c-1.3,0-2.6,0-3.9-0.1c-1.3-0.1-2.1-0.1-2.2-0.1
		c-0.6,0-0.9,0.2-0.9,0.5c0,0.2,0.1,0.4,0.2,0.5c0.1,0.1,0.7,0.6,2,1.6c1,0.8,1.5,1.5,1.5,2.1v37.9c0,4.5,1,8.7,3,12.6
		c1.5,2.9,3.3,5.5,5.6,7.6c-1.7-1.1-3.5-2-5.4-2.7c-2.4-0.9-4.7-1.4-6.8-1.4c-2.2,0-6.2,1-12,3.1c-2.7,1-5.3,1.5-7.6,1.5
		c-2.9,0-5.3-0.9-7.3-2.8c-2.1-2-3.2-4.8-3.2-8.2c0-3.6,0.9-6.5,2.7-8.8c1.8-2.3,4.2-3.4,7.2-3.4c1.9,0,3.5,0.5,4.7,1.4
		c1.2,0.9,1.8,2.1,1.8,3.7c0,1.3-0.4,2.2-1.1,2.8c-0.5,0.4-1.3,0.7-2.2,0.7c-0.4,0-0.7-0.1-1.1-0.2c-0.4-0.1-0.7-0.2-1-0.3
		c-0.2-0.1-0.4-0.1-0.4,0.1c0,0.2,0,0.4,0,0.6c0,1,0.6,1.9,1.7,2.7c1.1,0.8,2.4,1.2,3.8,1.2c2,0,3.7-0.7,4.9-2
		c1.3-1.4,1.9-3.2,1.9-5.4c0-2.7-1.1-4.8-3.4-6.5c-2.3-1.6-4.9-2.5-7.8-2.5c-4.2,0-7.8,1.5-10.6,4.6
		C15.6,192.4,14.2,196.1,14.2,200.7z"/>
</g>
</svg>
