<?xml version="1.0" encoding="utf-8"?>
<!-- Generator: Adobe Illustrator 22.0.0, SVG Export Plug-In . SVG Version: 6.00 Build 0)  -->
<svg version="1.1" id="Capa_1" xmlns="http://www.w3.org/2000/svg" xmlns:xlink="http://www.w3.org/1999/xlink" x="0px" y="0px"
	 viewBox="0 0 428.4 380.5" style="enable-background:new 0 0 428.4 380.5;" xml:space="preserve">
<style type="text/css">
	.st0{fill:none;stroke:#000000;stroke-miterlimit:10;}
	.st1{fill:none;}
</style>
<g>
	<path class="st0" d="M0.5,0.5h74.9v23.1H31.7V43h41.1v22.9H31.7V106H0.5V0.5z"/>
	<path class="st0" d="M169.9,63.5H128v19.5h46.9V106H96.7V0.5h75.7v23.1H128v17h41.9V63.5z"/>
	<path class="st0" d="M194.2,0.5h31.2v81.8h44.9V106h-76.2V0.5z"/>
	<path class="st0" d="M318.7,0.5V106h-31.2V0.5H318.7z"/>
	<path class="st0" d="M334.9,91l51.6-66.5v-0.6h-46.7V0.5h87.2v16.2L377,82.1v0.6h50.9V106h-93V91z"/>
	<path class="st0" d="M0.5,128.5c9.9-1.4,23.3-2.3,37.1-2.3c22.4,0,36.4,3.3,48,10.5c12.9,8,21.1,21.2,21.1,40.6
		c0,21.5-9,35.5-20.4,43.5c-12.8,9-31.9,13-54.7,13c-15,0-25.1-0.9-31.1-1.7V128.5z M31.7,211.5c1.6,0.3,4.5,0.3,6.6,0.3
		c20.3,0.2,35.2-9.8,35.2-33.6c0-20.6-13.6-30.3-32.3-30.3c-4.9,0-7.9,0.4-9.5,0.7V211.5z"/>
	<path class="st0" d="M156.5,127.1v105.5h-31.2V127.1H156.5z"/>
	<path class="st0" d="M210.5,208.1l-6.6,24.5h-32.3l33.8-105.5h41.6l34.8,105.5h-33.8l-7.4-24.5H210.5z M236.4,187.3l-5.4-19
		c-1.8-5.9-4-14.6-5.8-20.8h-0.3c-1.7,6.2-3.5,14.9-5.1,20.9l-5,18.9H236.4z"/>
	<path class="st0" d="M0.5,255.1c8.5-1.3,20.7-2.3,38.5-2.3c16.8,0,28.8,2.7,37,8.4c8,5.3,13.3,14.6,13.3,25.4
		c0,10.7-3.9,20-11.3,26c-9.4,7.6-23.1,11-38.9,11c-3,0-5.7-0.2-7.6-0.4v35.8H0.5V255.1z M31.4,301.7c1.7,0.3,3.8,0.4,7.1,0.4
		c12.2,0,19.8-5.7,19.8-14.8c0-7.9-5.8-13.2-17.7-13.2c-4.6,0-7.7,0.3-9.3,0.7V301.7z"/>
	<path class="st0" d="M128.5,334.7l-6.6,24.5H89.6l33.8-105.5h41.6l34.8,105.5h-33.8l-7.4-24.5H128.5z M154.4,313.8l-5.4-19
		c-1.8-5.9-4-14.6-5.8-20.8h-0.3c-1.7,6.2-3.5,14.9-5.1,20.9l-5,18.9H154.4z"/>
	<path class="st0" d="M216.7,255.1c8.5-1.3,20.7-2.3,38.5-2.3c16.8,0,28.8,2.7,37,8.4c8,5.3,13.3,14.6,13.3,25.4
		c0,10.7-3.9,20-11.3,26c-9.4,7.6-23.1,11-38.9,11c-3,0-5.7-0.2-7.6-0.4v35.8h-30.9V255.1z M247.7,301.7c1.7,0.3,3.8,0.4,7.1,0.4
		c12.2,0,19.8-5.7,19.8-14.8c0-7.9-5.8-13.2-17.7-13.2c-4.6,0-7.7,0.3-9.3,0.7V301.7z"/>
	<path class="st0" d="M344.7,334.7l-6.6,24.5h-32.3l33.8-105.5h41.6l34.8,105.5h-33.8l-7.4-24.5H344.7z M370.6,313.8l-5.4-19
		c-1.8-5.9-4-14.6-5.8-20.8h-0.3c-1.7,6.2-3.5,14.9-5.2,20.9l-5,18.9H370.6z"/>
</g>
<rect x="330.6" y="372.5" class="st1" width="0.7" height="8"/>
</svg>
